<svg width="554" height="565" viewBox="0 0 554 565" fill="none" xmlns="http://www.w3.org/2000/svg">
<path d="M502.517 522.262C502.517 525.666 479.375 528.93 438.18 531.337C396.986 533.743 341.114 535.095 282.857 535.095C254.01 535.095 225.446 534.763 198.796 534.119C172.145 533.474 147.93 532.528 127.533 531.337C86.3383 528.93 63.1956 525.666 63.1956 522.262C63.1956 520.576 68.8773 518.908 79.9163 517.351C90.9552 515.794 107.135 514.379 127.533 513.187C147.93 511.995 172.145 511.05 198.796 510.405C225.446 509.76 254.01 509.428 282.857 509.428C311.703 509.428 340.267 509.76 366.917 510.405C393.568 511.05 417.783 511.995 438.18 513.187C458.578 514.379 474.758 515.794 485.797 517.351C496.836 518.908 502.518 520.576 502.517 522.262Z" fill="#EFDDBD"/>
<path d="M429.825 105.05C429.825 84.185 413.244 67.2753 392.786 67.2753H376.799C356.341 67.2753 339.76 84.185 339.76 105.05V128.901H429.785V105.05H429.825Z" fill="#C4BDC4"/>
<path d="M466.785 285.204C461.759 285.204 456.931 282.419 454.478 277.576L412.413 195.006C408.892 188.064 411.543 179.549 418.31 175.957C425.116 172.365 433.465 175.069 436.987 181.97L479.052 264.541C482.574 271.482 479.922 279.998 473.156 283.59C471.098 284.679 468.921 285.204 466.785 285.204Z" fill="#ED4C06"/>
<path d="M286.757 309.628L295.182 286.343L314.339 293.552L305.914 316.838L286.757 309.628Z" fill="#F9CCA0"/>
<path d="M308.103 318.297L305.214 326.651C303.394 331.938 297.735 334.682 292.552 332.825L287.289 330.929C282.105 329.072 279.414 323.301 281.234 318.014L284.123 309.66C284.835 307.602 287.091 306.513 289.109 307.239L305.729 313.212C307.747 313.979 308.815 316.239 308.103 318.297Z" fill="#F9CCA0"/>
<path d="M352.621 178.096C346.092 174.02 337.584 176.119 333.587 182.777C320.687 204.207 309.884 227.09 301.455 250.739C295.321 267.891 291.325 279.554 287.684 297.472L314.672 303.93C322.626 264.137 336.318 232.376 357.251 197.548C361.208 190.889 359.15 182.172 352.621 178.096Z" fill="#ED4C06"/>
<path d="M374.187 477.586H352.265L348.822 378.146H377.63L374.187 477.586Z" fill="#F9CCA0"/>
<path d="M374.306 494.012H351.038L348.268 469.676H377.076L374.306 494.012Z" fill="#ED4C06"/>
<path d="M325.554 521.455H372.882C374.425 521.455 375.652 520.204 375.652 518.63V512.98H322.784V518.63C322.784 520.204 324.011 521.455 325.554 521.455Z" fill="#2D170B"/>
<path d="M326.425 515.926H371.417C373.752 515.926 375.652 513.988 375.652 511.607V487.797H344.113C332.36 487.797 322.824 497.523 322.824 509.509V512.213C322.784 514.231 324.407 515.926 326.425 515.926Z" fill="#5B3310"/>
<g opacity="0.2">
<path opacity="0.2" d="M345.023 497.725C345.023 499.095 344.49 500.409 343.54 501.377C342.59 502.346 341.302 502.89 339.958 502.89C339.293 502.89 338.634 502.757 338.02 502.497C337.405 502.238 336.847 501.857 336.377 501.377C335.906 500.898 335.533 500.328 335.279 499.701C335.024 499.075 334.893 498.403 334.893 497.725C334.893 497.046 335.024 496.375 335.279 495.748C335.533 495.121 335.906 494.552 336.377 494.072C336.847 493.592 337.405 493.212 338.02 492.952C338.634 492.693 339.293 492.559 339.958 492.559C341.302 492.559 342.59 493.103 343.54 494.072C344.49 495.041 345.023 496.355 345.023 497.725Z" fill="#E8ECEF"/>
</g>
<path d="M394.923 477.586H416.885L420.328 378.146H391.52L394.923 477.586Z" fill="#F9CCA0"/>
<path d="M394.844 494.012H418.112L420.882 469.676H392.074L394.844 494.012Z" fill="#ED4C06"/>
<path d="M443.596 521.455H396.268C394.725 521.455 393.498 520.204 393.498 518.63V512.98H446.366V518.63C446.366 520.204 445.099 521.455 443.596 521.455Z" fill="#2D170B"/>
<path d="M442.725 515.926H397.732C395.398 515.926 393.498 513.988 393.498 511.607V487.797H425.037C436.789 487.797 446.326 497.523 446.326 509.509V512.213C446.366 514.231 444.743 515.926 442.725 515.926Z" fill="#5B3310"/>
<g opacity="0.2">
<path opacity="0.2" d="M434.217 497.725C434.217 499.095 433.684 500.409 432.734 501.377C431.784 502.346 430.496 502.89 429.152 502.89C427.809 502.89 426.52 502.346 425.571 501.377C424.621 500.409 424.087 499.095 424.087 497.725C424.087 496.355 424.621 495.041 425.571 494.072C426.52 493.103 427.809 492.559 429.152 492.559C430.496 492.559 431.784 493.103 432.734 494.072C433.684 495.041 434.217 496.355 434.217 497.725Z" fill="#E8ECEF"/>
</g>
<path d="M348.901 276.325C338.811 301.75 332.479 337.789 332.479 377.743C332.479 389.487 333.033 400.868 334.062 411.764C334.656 417.979 339.76 422.781 345.894 422.781H423.691C429.825 422.781 434.93 418.019 435.523 411.764C436.552 400.868 437.106 389.487 437.106 377.743C437.106 337.789 430.814 301.75 420.684 276.325H348.901Z" fill="#9E1B25"/>
<path d="M351.83 174.666H417.756V291.661H351.83V174.666Z" fill="#FF6B00"/>
<path d="M352.542 174.545C340.631 174.545 330.975 183.988 330.975 195.651V315.916C330.975 320.032 334.379 323.341 338.573 323.341H360.021V174.545H352.542Z" fill="#ED4C06"/>
<path d="M417.083 174.545H409.604V323.341H431.052C435.246 323.341 438.649 320.032 438.649 315.916V195.651C438.649 183.988 428.994 174.545 417.083 174.545Z" fill="#ED4C06"/>
<path d="M372.842 156.263H396.743V181.809H372.842V156.263Z" fill="#EAAF7A"/>
<path d="M353.689 136.528H343.876C338.929 136.528 334.893 132.412 334.893 127.367C334.893 122.322 338.929 118.206 343.876 118.206H353.689C358.636 118.206 362.672 122.322 362.672 127.367C362.672 132.412 358.675 136.528 353.689 136.528Z" fill="#F9CCA0"/>
<path d="M343.876 132.573C341.066 132.573 338.771 130.232 338.771 127.367C338.771 124.502 341.066 122.161 343.876 122.161H353.689C356.499 122.161 358.794 124.502 358.794 127.367C358.794 130.232 356.499 132.573 353.689 132.573H343.876Z" fill="#EAAF7A"/>
<path d="M425.709 136.528H415.896C410.949 136.528 406.913 132.412 406.913 127.367C406.913 122.322 410.949 118.206 415.896 118.206H425.709C430.656 118.206 434.692 122.322 434.692 127.367C434.692 132.412 430.656 136.528 425.709 136.528Z" fill="#F9CCA0"/>
<path d="M415.896 132.573C413.086 132.573 410.791 130.233 410.791 127.367C410.791 124.502 413.086 122.161 415.896 122.161H425.709C428.519 122.161 430.814 124.502 430.814 127.367C430.814 130.233 428.519 132.573 425.709 132.573H415.896Z" fill="#EAAF7A"/>
<path d="M391.955 168.047H377.67C361.168 168.047 347.793 154.406 347.793 137.577V100.974C347.793 84.1446 361.168 70.5039 377.67 70.5039H391.955C408.456 70.5039 421.831 84.1446 421.831 100.974V137.577C421.831 154.406 408.456 168.047 391.955 168.047Z" fill="#F9CCA0"/>
<path d="M392.43 67.3157H385.782H383.803H377.155C359.506 67.3157 345.221 80.795 345.221 97.4625V113.323C346.25 113.404 347.318 113.444 348.347 113.444C365.086 113.444 379.371 103.395 384.793 89.3507C390.214 103.395 404.46 113.444 421.238 113.444C422.306 113.444 423.335 113.404 424.364 113.323V97.4625C424.364 80.795 410.079 67.3157 392.43 67.3157Z" fill="#C4BDC4"/>
<path d="M384.476 158.119C380.717 157.998 377.709 155.133 376.997 151.541C376.839 150.855 377.393 150.209 378.065 150.209C378.58 150.209 379.055 150.573 379.134 151.097C379.648 153.882 382.102 155.98 385.03 155.819C387.681 155.698 389.818 153.64 390.333 151.057C390.451 150.532 390.887 150.169 391.401 150.169H391.48C392.192 150.169 392.707 150.815 392.549 151.501C391.876 155.375 388.512 158.24 384.476 158.119Z" fill="#C15133"/>
<path d="M371.022 184.715C375.929 188.226 382.695 187.055 386.178 182.051L368.41 169.298C364.928 174.262 366.115 181.204 371.022 184.715Z" fill="#FF8B00"/>
<path d="M398.603 184.715C393.696 188.226 386.929 187.055 383.447 182.051L401.215 169.298C404.657 174.262 403.51 181.204 398.603 184.715Z" fill="#FF8B00"/>
<path d="M421.159 252.878C420.446 252.878 419.892 252.313 419.892 251.586V199.727C419.892 199.001 420.446 198.436 421.159 198.436C421.871 198.436 422.425 199.001 422.425 199.727V251.586C422.425 252.313 421.871 252.878 421.159 252.878Z" fill="#0AA083"/>
<path d="M421.08 230.48H414.59C407.348 230.48 401.452 224.466 401.452 217.081H407.942C415.223 217.121 421.08 223.094 421.08 230.48Z" fill="#0AA083"/>
<path d="M420.961 218.897H427.53C434.89 218.897 440.826 212.803 440.826 205.337H434.257C426.936 205.337 420.961 211.391 420.961 218.897Z" fill="#0AA083"/>
<path d="M421.317 200.333H415.46C408.931 200.333 403.629 194.925 403.629 188.266H409.485C416.014 188.266 421.317 193.674 421.317 200.333Z" fill="#0AA083"/>
<path d="M421 200.494H426.857C433.386 200.494 438.689 195.086 438.689 188.427H432.832C426.303 188.427 421 193.835 421 200.494Z" fill="#0AA083"/>
<path d="M434.93 295.455H407.388L400.977 242.062H441.34L434.93 295.455Z" fill="#99591F"/>
<path d="M396.387 237.582H445.93V248.6H396.387V237.582Z" fill="#753E12"/>
<path d="M387.821 259.472L413.424 259.523L413.383 281.397L387.78 281.345L387.821 259.472Z" fill="#F9CCA0"/>
<path d="M387.127 284.114L377.986 284.235C372.209 284.316 367.5 279.594 367.421 273.702L367.342 267.729C367.262 261.837 371.892 257.035 377.67 256.954L386.811 256.833C389.066 256.793 390.926 258.649 390.966 260.949L391.203 279.836C391.203 282.217 389.383 284.114 387.127 284.114Z" fill="#F9CCA0"/>
<path d="M466.785 256.631H394.725V284.881H466.785C474.422 284.881 480.634 278.545 480.634 270.756C480.634 262.967 474.422 256.631 466.785 256.631Z" fill="#ED4C06"/>
<path d="M362.158 125.632C362.158 127.73 363.82 129.385 365.838 129.385C367.856 129.385 369.518 127.69 369.518 125.632C369.518 124.865 369.281 124.139 368.885 123.533H362.751C362.395 124.179 362.158 124.865 362.158 125.632Z" fill="#3F3E3E"/>
<path d="M401.571 123.574C401.175 124.179 400.938 124.906 400.938 125.673C400.938 127.771 402.6 129.426 404.618 129.426C406.676 129.426 408.298 127.731 408.298 125.673C408.298 124.906 408.061 124.179 407.665 123.574H401.571Z" fill="#3F3E3E"/>
<path d="M365.996 107.955C357.132 107.955 349.93 115.3 349.93 124.34C349.93 133.38 357.132 140.725 365.996 140.725C374.86 140.725 382.062 133.38 382.062 124.34C382.062 115.3 374.86 107.955 365.996 107.955ZM365.996 137.295C358.992 137.295 353.294 131.484 353.294 124.34C353.294 117.197 358.992 111.386 365.996 111.386C373 111.386 378.699 117.197 378.699 124.34C378.699 131.484 373 137.295 365.996 137.295Z" fill="#644E55"/>
<path d="M353.017 119.013H345.854C344.786 119.013 343.915 118.125 343.915 117.036V115.421C343.915 114.332 344.786 113.444 345.854 113.444H354.758L353.017 119.013Z" fill="#644E55"/>
<path d="M387.523 124.34C387.523 133.38 394.725 140.725 403.589 140.725C412.453 140.725 419.655 133.38 419.655 124.34C419.655 115.3 412.453 107.955 403.589 107.955C394.725 107.955 387.523 115.3 387.523 124.34ZM390.926 124.34C390.926 117.197 396.624 111.386 403.629 111.386C410.633 111.386 416.331 117.197 416.331 124.34C416.331 131.484 410.633 137.295 403.629 137.295C396.585 137.295 390.926 131.484 390.926 124.34Z" fill="#644E55"/>
<path d="M416.568 119.013H423.731C424.799 119.013 425.67 118.125 425.67 117.036V115.421C425.67 114.332 424.799 113.444 423.731 113.444H414.827L416.568 119.013Z" fill="#644E55"/>
<path d="M380.915 122.726H388.71V126.197H380.915V122.726Z" fill="#644E55"/>
<path d="M369.914 160.541L368.489 157.675C367.025 154.689 367.223 151.097 369.004 148.312L371.022 145.165L372.169 145.931L370.151 149.079C368.647 151.46 368.45 154.487 369.716 157.03L371.14 159.895L369.914 160.541Z" fill="#EAAF7A"/>
<path d="M399.038 160.541L397.812 159.895L399.236 157.03C400.463 154.487 400.305 151.46 398.801 149.079L396.783 145.931L397.93 145.165L399.948 148.312C401.729 151.097 401.927 154.689 400.463 157.675L399.038 160.541Z" fill="#EAAF7A"/>
<path d="M396.262 48.7229C399.305 51.826 401.014 56.0346 401.014 60.4229C401.014 64.8113 399.305 69.0199 396.262 72.1229C393.219 75.2259 389.093 76.9692 384.79 76.9692C380.487 76.9692 376.36 75.2259 373.318 72.1229C370.275 69.0199 368.566 64.8113 368.566 60.4229C368.566 56.0346 370.275 51.826 373.318 48.7229C376.36 45.6199 380.487 43.8766 384.79 43.8766C389.093 43.8766 393.219 45.6199 396.262 48.7229Z" fill="#C4BDC4"/>
<path opacity="0.2" d="M345.459 369.026C342.253 369.026 339.641 366.362 339.641 363.093V333.511C339.641 330.242 342.253 327.579 345.459 327.579C348.664 327.579 351.276 330.242 351.276 333.511V363.093C351.276 366.362 348.703 369.026 345.459 369.026Z" fill="#E8ECEF"/>
<path opacity="0.2" d="M345.459 391.706C342.253 391.706 339.641 389.043 339.641 385.774V379.559C339.641 376.29 342.253 373.626 345.459 373.626C348.664 373.626 351.276 376.29 351.276 379.559V385.774C351.276 389.043 348.703 391.706 345.459 391.706Z" fill="#E8ECEF"/>
<path opacity="0.2" d="M368.173 90.3596C368.173 94.9604 364.492 98.7136 359.981 98.7136C355.47 98.7136 351.79 94.9604 351.79 90.3596C351.79 85.7589 355.47 82.0057 359.981 82.0057C364.532 82.0057 368.173 85.7589 368.173 90.3596Z" fill="#E8ECEF"/>
<path d="M279.627 317.118L275.669 291.321L296.859 287.939L300.817 313.737L279.627 317.118Z" fill="#F9CCA0"/>
<path d="M303.592 313.938L305.135 323.14C306.125 328.951 302.286 334.44 296.588 335.449L290.81 336.457C285.112 337.466 279.73 333.552 278.741 327.74L277.198 318.539C276.802 316.279 278.306 314.1 280.561 313.696L298.843 310.508C301.099 310.145 303.196 311.678 303.592 313.938Z" fill="#F9CCA0"/>
<path d="M76.6103 527.105C73.5633 527.105 71.0703 524.562 71.0703 521.455V290.087C71.0703 281.168 63.9475 273.904 55.2022 273.904C46.4569 273.904 39.334 281.168 39.334 290.087V290.289C39.334 293.396 36.841 295.939 33.794 295.939C30.747 295.939 28.254 293.396 28.254 290.289V290.087C28.254 274.953 40.3233 262.604 55.2022 262.604C70.081 262.604 82.1503 274.913 82.1503 290.087V521.455C82.1503 524.562 79.6573 527.105 76.6103 527.105Z" fill="#5B3310"/>
<path d="M260.38 521.455H213.053C211.509 521.455 210.283 520.204 210.283 518.63V512.98H263.15V518.63C263.15 520.204 261.923 521.455 260.38 521.455Z" fill="#061A28"/>
<path d="M259.509 515.926H214.517C212.182 515.926 210.283 513.989 210.283 511.608V487.797H241.821C253.574 487.797 263.11 497.523 263.11 509.509V512.213C263.15 514.231 261.528 515.926 259.509 515.926Z" fill="#0F2333"/>
<path d="M210.283 464.753H240.199V489.613H210.283V464.753Z" fill="#0F2333"/>
<g opacity="0.2">
<path opacity="0.2" d="M251.041 497.725C251.041 498.403 250.91 499.075 250.656 499.702C250.401 500.328 250.028 500.898 249.558 501.377C249.087 501.857 248.529 502.238 247.914 502.497C247.3 502.757 246.641 502.89 245.976 502.89C245.311 502.89 244.652 502.757 244.038 502.497C243.423 502.238 242.865 501.857 242.394 501.377C241.924 500.898 241.551 500.328 241.296 499.702C241.042 499.075 240.911 498.403 240.911 497.725C240.911 497.046 241.042 496.375 241.296 495.748C241.551 495.121 241.924 494.552 242.394 494.072C242.865 493.592 243.423 493.212 244.038 492.952C244.652 492.693 245.311 492.559 245.976 492.559C246.641 492.559 247.3 492.693 247.914 492.952C248.529 493.212 249.087 493.592 249.558 494.072C250.028 494.552 250.401 495.121 250.656 495.748C250.91 496.375 251.041 497.046 251.041 497.725Z" fill="#E8ECEF"/>
</g>
<path d="M135.77 520.93H183.097C184.64 520.93 185.867 519.679 185.867 518.105V512.455H133V518.105C133 519.679 134.226 520.93 135.77 520.93Z" fill="#061A28"/>
<path d="M136.64 515.401H181.633C183.968 515.401 185.867 513.464 185.867 511.083V487.272H154.329C142.576 487.272 133.039 496.998 133.039 508.984V511.688C133 513.746 134.622 515.401 136.64 515.401Z" fill="#0F2333"/>
<path d="M185.871 489.095H155.955V464.235H185.871V489.095Z" fill="#0F2333"/>
<g opacity="0.2">
<path opacity="0.2" d="M145.109 497.24C145.109 500.106 147.364 502.406 150.174 502.406C152.983 502.406 155.239 500.106 155.239 497.24C155.239 494.375 152.983 492.075 150.174 492.075C147.404 492.075 145.109 494.375 145.109 497.24Z" fill="#E8ECEF"/>
</g>
<path d="M225.003 275.72H203.793H192.475H171.265H148.314L152.231 486.223H188.558L191.565 323.987C191.644 320.355 194.533 317.409 198.134 317.409C201.696 317.409 204.624 320.315 204.703 323.987L207.71 486.223H244.037L247.955 275.72H225.003Z" fill="#0087AC"/>
<path d="M242.296 287.262H153.972C149.026 287.262 145.029 283.186 145.029 278.141V163.002C145.029 156.707 150.055 151.581 156.228 151.581H240.119C246.293 151.581 251.318 156.707 251.318 163.002V278.141C251.279 283.186 247.242 287.262 242.296 287.262Z" fill="#30D1E2"/>
<path d="M186.184 130.354H210.085V159.734H186.184V130.354Z" fill="#EAAF7A"/>
<path d="M186.222 143.401L199.674 159.758L189.214 168.705L175.762 152.348L186.222 143.401Z" fill="#7BE9EF"/>
<path d="M220.539 152.323L207.087 168.681L196.627 159.734L210.079 143.376L220.539 152.323Z" fill="#7BE9EF"/>
<path d="M203.793 179.307C203.793 182.495 201.26 185.078 198.134 185.078C195.008 185.078 192.475 182.495 192.475 179.307C192.475 176.119 195.008 173.536 198.134 173.536C201.26 173.536 203.793 176.119 203.793 179.307Z" fill="#7BE9EF"/>
<path d="M203.793 201.826C203.793 205.014 201.26 207.597 198.134 207.597C195.008 207.597 192.475 205.014 192.475 201.826C192.475 198.638 195.008 196.055 198.134 196.055C201.26 196.055 203.793 198.638 203.793 201.826Z" fill="#7BE9EF"/>
<path d="M64.5391 250.314L89.3328 243.796L94.6861 264.979L69.8925 271.496L64.5391 250.314Z" fill="#F9CCA0"/>
<path d="M69.9227 274.308L61.0983 276.769C55.5187 278.303 49.7809 274.953 48.2771 269.303L46.7339 263.532C45.2301 257.842 48.5146 251.99 54.0546 250.456L62.879 247.995C65.0554 247.389 67.311 248.721 67.9046 250.941L72.8114 269.182C73.405 271.402 72.1387 273.702 69.9227 274.308Z" fill="#F9CCA0"/>
<path d="M165.606 105.211H155.041C149.699 105.211 145.385 100.812 145.385 95.3639C145.385 89.9157 149.699 85.5168 155.041 85.5168H165.606C170.949 85.5168 175.262 89.9157 175.262 95.3639C175.262 100.812 170.949 105.211 165.606 105.211Z" fill="#F9CCA0"/>
<path d="M155.001 100.974C151.954 100.974 149.501 98.4311 149.501 95.3639C149.501 92.2564 151.994 89.7543 155.001 89.7543H165.567C168.614 89.7543 171.067 92.2968 171.067 95.3639C171.067 98.4714 168.574 100.974 165.567 100.974H155.001Z" fill="#EAAF7A"/>
<path d="M243.166 105.211H232.601C227.259 105.211 222.945 100.812 222.945 95.3639C222.945 89.9157 227.259 85.5168 232.601 85.5168H243.166C248.509 85.5168 252.822 89.9157 252.822 95.3639C252.861 100.812 248.509 105.211 243.166 105.211Z" fill="#F9CCA0"/>
<path d="M232.601 100.974C229.554 100.974 227.1 98.4311 227.1 95.3639C227.1 92.2564 229.593 89.7543 232.601 89.7543H243.166C246.213 89.7543 248.667 92.2968 248.667 95.3639C248.667 98.4714 246.174 100.974 243.166 100.974H232.601Z" fill="#EAAF7A"/>
<path d="M206.8 142.663H191.407C173.639 142.663 159.196 127.973 159.196 109.812V70.3425C159.196 52.2221 173.6 37.4918 191.407 37.4918H206.8C224.568 37.4918 239.011 52.1818 239.011 70.3425V109.812C239.011 127.932 224.568 142.663 206.8 142.663Z" fill="#F9CCA0"/>
<path d="M212.736 60.4146H185.432C184.561 60.4146 183.849 59.6882 183.849 58.8004C183.849 57.9125 184.561 57.1861 185.432 57.1861H212.736C213.607 57.1861 214.319 57.9125 214.319 58.8004C214.319 59.6882 213.607 60.4146 212.736 60.4146Z" fill="#EAAF7A"/>
<path d="M209.056 65.6611H189.151C188.281 65.6611 187.569 64.9347 187.569 64.0468C187.569 63.1589 188.281 62.4325 189.151 62.4325H209.056C209.926 62.4325 210.639 63.1589 210.639 64.0468C210.639 64.9347 209.926 65.6611 209.056 65.6611Z" fill="#EAAF7A"/>
<path d="M181.158 89.6736C181.158 91.7721 179.496 93.4268 177.478 93.4268C175.46 93.4268 173.798 91.7318 173.798 89.6736C173.798 87.575 175.46 85.9203 177.478 85.9203C179.496 85.9203 181.158 87.575 181.158 89.6736Z" fill="#3F3E3E"/>
<path d="M224.41 89.6736C224.41 91.7721 222.748 93.4268 220.729 93.4268C218.711 93.4268 217.049 91.7318 217.049 89.6736C217.049 87.575 218.711 85.9203 220.729 85.9203C222.748 85.9203 224.41 87.575 224.41 89.6736Z" fill="#3F3E3E"/>
<path d="M203.951 129.224H194.256C190.141 129.224 186.777 125.793 186.777 121.596V111.951H211.43V121.596C211.43 125.793 208.067 129.224 203.951 129.224Z" fill="#C15133"/>
<path d="M194.256 129.224H203.951C207.394 129.224 210.322 126.843 211.153 123.574C207.908 122.363 203.674 121.636 199.084 121.636C194.494 121.636 190.259 122.363 187.015 123.574C187.885 126.843 190.774 129.224 194.256 129.224Z" fill="#A02F18"/>
<path d="M160.185 88.4629C156.98 88.4629 154.368 85.7993 154.368 82.5304V67.3157C154.368 64.0468 156.98 61.3832 160.185 61.3832C163.39 61.3832 166.002 64.0468 166.002 67.3157V82.5304C166.002 85.7993 163.39 88.4629 160.185 88.4629Z" fill="#C4BDC4"/>
<path d="M238.022 88.4629C234.817 88.4629 232.205 85.7993 232.205 82.5304V67.3157C232.205 64.0468 234.817 61.3832 238.022 61.3832C241.227 61.3832 243.839 64.0468 243.839 67.3157V82.5304C243.879 85.7993 241.267 88.4629 238.022 88.4629Z" fill="#C4BDC4"/>
<path d="M190.853 77.0418H164.103C161.926 77.0418 160.146 78.8579 160.146 81.0775V98.2697C160.146 100.489 161.926 102.305 164.103 102.305H190.853C193.029 102.305 194.81 100.489 194.81 98.2697V81.0775C194.81 78.8579 193.029 77.0418 190.853 77.0418ZM191.447 96.8975C191.447 97.9872 190.576 98.875 189.508 98.875H165.409C164.34 98.875 163.47 97.9872 163.47 96.8975V82.4497C163.47 81.36 164.34 80.4722 165.409 80.4722H189.508C190.576 80.4722 191.447 81.36 191.447 82.4497V96.8975Z" fill="#644E55"/>
<path d="M156.663 86.4854H161.491V80.3107H156.663C155.991 80.3107 155.437 80.8757 155.437 81.5618V85.2343C155.437 85.9204 155.951 86.4854 156.663 86.4854Z" fill="#644E55"/>
<path d="M203.397 81.0775V98.2697C203.397 100.489 205.178 102.305 207.354 102.305H234.105C236.281 102.305 238.062 100.489 238.062 98.2697V81.0775C238.062 78.8579 236.281 77.0418 234.105 77.0418H207.354C205.138 77.0418 203.397 78.8579 203.397 81.0775ZM206.721 82.4497C206.721 81.36 207.592 80.4722 208.66 80.4722H232.759C233.828 80.4722 234.698 81.36 234.698 82.4497V96.8975C234.698 97.9872 233.828 98.875 232.759 98.875H208.66C207.592 98.875 206.721 97.9872 206.721 96.8975V82.4497Z" fill="#644E55"/>
<path d="M241.544 86.4854H236.716V80.3107H241.544C242.217 80.3107 242.771 80.8757 242.771 81.5618V85.2343C242.771 85.9204 242.217 86.4854 241.544 86.4854Z" fill="#644E55"/>
<path d="M193.425 86.4854H204.782V90.4807H193.425V86.4854Z" fill="#644E55"/>
<path d="M162.599 153.276C155.714 149.886 147.443 152.873 144.119 159.895L108.07 236.412L75.4232 244.645L80.7653 272.411L121.089 262.241C125.085 261.232 128.449 258.447 130.23 254.654L169.128 172.123C172.413 165.101 169.524 156.666 162.599 153.276Z" fill="#30D1E2"/>
<path d="M302.84 301.024C299.635 276.083 293.976 251.385 285.983 227.574C277.989 203.763 267.622 180.719 255.117 159.007C251.239 152.268 242.771 150.008 236.162 153.963C229.554 157.918 227.338 166.554 231.216 173.294C254.523 213.853 269.402 258.044 275.338 304.656L275.496 305.907L302.88 301.387L302.84 301.024Z" fill="#30D1E2"/>
<path d="M179.694 131.484L178.269 128.618C176.805 125.632 177.003 122.04 178.784 119.255L180.802 116.108L181.949 116.874L179.931 120.022C178.428 122.403 178.23 125.43 179.496 127.973L180.921 130.838L179.694 131.484Z" fill="#EAAF7A"/>
<path d="M218.078 131.484L216.851 130.838L218.276 127.973C219.503 125.43 219.344 122.403 217.841 120.022L215.823 116.874L216.97 116.108L218.988 119.255C220.769 122.04 220.967 125.632 219.503 128.618L218.078 131.484Z" fill="#EAAF7A"/>
<path d="M192.238 117.439H171.78C171.78 113.04 175.301 109.449 179.615 109.449H200.073C200.073 113.848 196.551 117.439 192.238 117.439Z" fill="#C4BDC4"/>
<path d="M205.969 117.439H226.428C226.428 113.04 222.906 109.449 218.593 109.449H198.134C198.134 113.848 201.656 117.439 205.969 117.439Z" fill="#C4BDC4"/>
<path opacity="0.1" d="M161.095 345.578C157.89 345.578 155.278 342.915 155.278 339.646V310.064C155.278 306.795 157.89 304.131 161.095 304.131C164.301 304.131 166.912 306.795 166.912 310.064V339.646C166.912 342.955 164.301 345.578 161.095 345.578Z" fill="#E8ECEF"/>
<path opacity="0.1" d="M161.095 368.259C157.89 368.259 155.278 365.595 155.278 362.326V356.111C155.278 352.843 157.89 350.179 161.095 350.179C164.301 350.179 166.912 352.843 166.912 356.111V362.326C166.912 365.595 164.301 368.259 161.095 368.259Z" fill="#E8ECEF"/>
</svg>
